<svg xmlns="http://www.w3.org/2000/svg" xmlns:xlink="http://www.w3.org/1999/xlink" viewBox="0 0 414 372">
  <defs>
    <path id="a" d="M0 .203h273.817V240H0z"/>
  </defs>
  <g fill="none" fill-rule="evenodd">
    <path fill="#FFF" d="M0 0h414v372H0z"/>
    <g transform="translate(70 66)">
      <mask id="b" fill="#fff">
        <use xlink:href="#a"/>
      </mask>
      <path d="M196.81.202c-24.197 0-45.778 32.27-59.897 82.723C122.8 32.47 101.211.202 77.015.202 34.488.202-.001 107.566-.001 240.002h34.235c0-122.977 19.16-222.669 42.78-222.669 23.63 0 42.788 92.027 42.788 205.542h34.224c0-113.515 19.155-205.542 42.784-205.542 23.626 0 42.787 99.692 42.787 222.668h34.22C273.817 107.566 239.338.202 196.81.202" fill="#FFBC0D" mask="url(#b)"/>
    </g>
  </g>
</svg>